<?xml version="1.0" encoding="utf-8"?>
<!-- Generator: Adobe Illustrator 25.0.0, SVG Export Plug-In . SVG Version: 6.00 Build 0)  -->
<svg version="1.1" id="Camada_1" xmlns="http://www.w3.org/2000/svg" xmlns:xlink="http://www.w3.org/1999/xlink" x="0px" y="0px"
	 viewBox="0 0 600 600" style="enable-background:new 0 0 600 600;" xml:space="preserve">
<style type="text/css">
	.st0{fill:#4F1128;}
	.st1{fill:#FFFFFF;}
</style>
<rect x="-4" y="-5" class="st0" width="614" height="614"/>
<g>
	<g>
		<path class="st1" d="M303,137.4v0.5l0.9,324l61.7,4.8c6.8-0.9,51.1-280.7,103.5-329.2L303,137.4L303,137.4z"/>
		<path class="st1" d="M303,137.4v0.4l0.9,324l-68.6,4.8C228.4,466,189.3,186,137,137.4L303,137.4L303,137.4L303,137.4z"/>
	</g>
	<path class="st0" d="M299.9,136h-52.2c0,0-16.1,45-21.8,103.3c-5.4,72.3,71.5,83.8,71.5,97.5c0,13.6-0.3,62.2-0.3,62.2
		s0,0,0.2,33.1c0.2,33.1-38.4,35.2-53.5,33c-8-1.2-8.8,0.8-7.4,3c0,0,4,0,4.9,0c1.9,0,59,0,59,0h1.3c0,0,58.2,0,60.2,0
		c0.9,0,4.9,0,4.9,0c1.5-2.2,0.9-4.3-7.3-3.1c-15.2,2.2-53.8,0.2-53.6-32.9s0.2-33.1,0.2-33.1s-0.4-48.5-0.4-62.2
		c-0.1-13.6,79.7-23.4,71.3-97.6c-5.7-58.3-24.9-103.2-24.9-103.2H299.9L299.9,136z"/>
</g>
</svg>
