<?xml version="1.0" encoding="utf-8"?>
<!-- Generator: Adobe Illustrator 25.0.0, SVG Export Plug-In . SVG Version: 6.00 Build 0)  -->
<svg version="1.1" id="Camada_1" xmlns="http://www.w3.org/2000/svg" xmlns:xlink="http://www.w3.org/1999/xlink" x="0px" y="0px"
	 viewBox="0 0 163 69" style="enable-background:new 0 0 163 69;" xml:space="preserve">
<style type="text/css">
	.st0{fill:#353334;}
	.st1{fill:#FFFFFF;}
	.st2{fill:#FFFFFF;stroke:#FFFFFF;stroke-width:0.5;stroke-miterlimit:10;}
</style>
<g>
	<rect x="-1" y="-1" class="st0" width="165" height="71"/>
	<g>
		<path class="st1" d="M33.71,6.91l0,0.08l0.15,54.83l10.89,0.82c1.2-0.16,9.02-47.5,18.26-55.72H33.71z"/>
		<path class="st1" d="M33.71,6.91l0,0.07l0.15,54.84l-12.11,0.82c-1.2-0.11-8.11-47.5-17.34-55.72H33.71z"/>
	</g>
	<path class="st0" d="M32.96,6.45h-9.21c0,0-2.84,7.62-3.84,17.48c-0.96,12.24,12.62,14.19,12.62,16.5c0,2.31-0.06,10.52-0.06,10.52
		s0,0,0.04,5.6s-6.78,5.96-9.45,5.58c-1.41-0.2-1.55,0.14-1.31,0.51c0,0,0.71,0,0.87,0c0.34,0,10.42,0,10.42,0h0.23
		c0,0,10.27,0,10.62,0c0.16,0,0.87,0,0.87,0c0.26-0.37,0.16-0.72-1.28-0.52c-2.68,0.38-9.5,0.03-9.46-5.57s0.03-5.6,0.03-5.6
		s-0.07-8.21-0.07-10.52c-0.01-2.31,14.07-3.96,12.59-16.52c-1.01-9.86-4.4-17.46-4.4-17.46H32.96L32.96,6.45z"/>
	<g>
		<path class="st2" d="M72.43,17.79v36.67h-2.06V17.79H72.43z"/>
		<path class="st2" d="M82.69,50.74c1.71,1.57,3.75,2.35,6.11,2.35c2.54,0,4.7-0.9,6.5-2.69c0.23-0.23,0.45-0.47,0.65-0.71
			l1.92,0.69c-0.35,0.49-0.75,0.95-1.19,1.4c-2.17,2.17-4.8,3.26-7.87,3.26c-3.06,0-5.68-1.09-7.85-3.26s-3.26-4.8-3.26-7.87
			c0-3.06,1.09-5.68,3.26-7.85c2.17-2.17,4.79-3.26,7.85-3.26c2.63,0,4.93,0.79,6.9,2.37c0.32,0.27,0.65,0.57,0.97,0.89
			c0.12,0.12,0.24,0.24,0.34,0.36l-1.38,1.38L82.69,50.74z M94.3,36.55c-1.58-1.21-3.41-1.82-5.5-1.82c-2.52,0-4.68,0.89-6.48,2.68
			c-1.79,1.79-2.69,3.95-2.69,6.49c0,2.09,0.61,3.93,1.82,5.5L94.3,36.55z"/>
		<path class="st2" d="M110.05,51.14l7.65-16.55h2.1l-9.75,20.42l-9.75-20.42h2.1L110.05,51.14z"/>
		<path class="st2" d="M126.45,28.07c0.36,0.35,0.54,0.78,0.54,1.27c0,0.51-0.18,0.94-0.54,1.29c-0.36,0.35-0.79,0.53-1.29,0.53
			c-0.5,0-0.93-0.18-1.29-0.53c-0.36-0.35-0.54-0.78-0.54-1.29c0-0.5,0.18-0.92,0.54-1.27c0.36-0.35,0.79-0.53,1.29-0.53
			C125.67,27.54,126.09,27.72,126.45,28.07z M126.08,34.59v19.87h-1.82V34.59H126.08z"/>
		<path class="st2" d="M134.38,39.02v15.44h-1.82V34.59h1.82v1.27c1.66-1.65,3.59-2.47,5.79-2.47c2.35,0,4.26,0.74,5.73,2.21
			s2.23,3.33,2.27,5.57v13.3h-1.82V41.32c0-1.69-0.61-3.13-1.83-4.32c-1.22-1.19-2.67-1.79-4.34-1.79c-1.67,0-3.12,0.59-4.33,1.76
			C135.17,37.63,134.68,38.32,134.38,39.02z"/>
	</g>
</g>
</svg>
